Coordinates
version=1
nRows=18
nColumns=22
inDegrees=yes

Units are S.I. units (second, meters, Newtons, ...)
If the header above contains a line with 'inDegrees', this indicates whether rotational values are in degrees (yes) or radians (no).

endheader
time	pelvis_tilt	pelvis_list	pelvis_rotation	pelvis_tx	pelvis_ty	pelvis_tz	hip_flexion_r	hip_adduction_r	hip_rotation_r	knee_angle_r	ankle_angle_r	subtalar_angle_r	hip_flexion_l	hip_adduction_l	hip_rotation_l	knee_angle_l	ankle_angle_l	subtalar_angle_l	lumbar_extension	lumbar_bending	lumbar_rotation
      2.78000000	      3.97296201	     -2.45707757	     30.63914419	     -0.48972814	      0.99913669	      0.41935082	     -2.54232813	      1.25474459	     -8.63211749	    -48.14637874	      0.26779852	     15.91151891	     17.37570482	     -0.21402332	    -18.18574400	    -26.68438910	     11.14823445	     -9.69927672	    -13.51238172	     -0.09442598	      4.56884823
      2.79000000	      3.75168926	     -2.15998090	     31.15897947	     -0.48500005	      0.99938340	      0.41385597	     -1.19185225	      0.55611081	     -8.45618026	    -50.51932328	      0.06594184	     15.79110013	     16.84044405	      0.43716459	    -17.96838886	    -26.34451200	     11.41007268	     -9.60545410	    -13.40757944	     -0.44570361	      4.14610003
      2.80000000	      3.47733917	     -1.94343755	     31.69973981	     -0.48046502	      0.99942488	      0.40844956	      0.26440259	     -0.07255657	     -8.23903400	    -52.74672452	      0.08012359	     15.42285105	     16.42111607	      1.04723945	    -17.68226221	    -26.03179079	     11.71759584	     -9.48784004	    -13.22440159	     -0.74013801	      3.73861721
      2.81000000	      3.26544667	     -1.67434979	     32.26623000	     -0.47606295	      0.99960028	      0.40303521	      1.60754317	     -0.70367048	     -8.01178435	    -54.75516283	      0.24619482	     14.92616258	     15.89168549	      1.67643733	    -17.38214391	    -25.67466047	     11.97412264	     -9.38284485	    -13.15185026	     -1.03604686	      3.31226076
      2.82000000	      3.08764190	     -1.40801967	     32.85750787	     -0.47180552	      0.99983500	      0.39764381	      2.89569616	     -1.29400089	     -7.76127393	    -56.53486994	      0.53283965	     14.29749813	     15.32359194	      2.28674827	    -17.04304803	    -25.29752370	     12.21313624	     -9.27905881	    -13.12773994	     -1.29711816	      2.88127774
      2.83000000	      2.94123144	     -1.15533155	     33.47477037	     -0.46770420	      1.00013875	      0.39226824	      4.13381376	     -1.83020458	     -7.47958152	    -58.07091889	      0.88780405	     13.58637409	     14.72469322	      2.87127078	    -16.65276381	    -24.89798704	     12.41760397	     -9.17253647	    -13.14088833	     -1.51231275	      2.45671109
      2.84000000	      2.82286299	     -0.92663023	     34.12160229	     -0.46375215	      1.00050015	      0.38690720	      5.32602256	     -2.30075091	     -7.16595652	    -59.35383974	      1.25208383	     12.79994914	     14.11077634	      3.41513516	    -16.23004951	    -24.49243860	     12.60546722	     -9.05985788	    -13.17864341	     -1.67111615	      2.02379959
      2.85000000	      2.72442749	     -0.72016456	     34.79543162	     -0.45992570	      1.00092208	      0.38155886	      6.47527165	     -2.71128990	     -6.81948529	    -60.38386872	      1.58900817	     12.03687654	     13.47804566	      3.92821950	    -15.75119876	    -24.06232293	     12.75866324	     -8.93970792	    -13.22727011	     -1.78675098	      1.59967954
      2.86000000	      2.64483949	     -0.54976081	     35.49399807	     -0.45620754	      1.00137906	      0.37624313	      7.58853319	     -3.04397742	     -6.43713176	    -61.15984718	      1.85540434	     11.22666158	     12.84646830	      4.38632851	    -15.25777584	    -23.63122209	     12.93277186	     -8.80800356	    -13.27556005	     -1.84818314	      1.16984848
      2.87000000	      2.57317623	     -0.40017662	     36.21749613	     -0.45262195	      1.00187584	      0.37096937	      8.66785355	     -3.31562325	     -6.00910881	    -61.69122759	      2.06553473	     10.52834644	     12.21234104	      4.81783581	    -14.71243334	    -23.18484486	     13.05124590	     -8.66922977	    -13.32754698	     -1.87807407	      0.75456490
      2.88000000	      2.50580767	     -0.27591946	     36.95817369	     -0.44912294	      1.00238823	      0.36574319	      9.71473638	     -3.52506419	     -5.53607035	    -61.98378278	      2.23355023	      9.91918952	     11.57855470	      5.21413749	    -14.14510062	    -22.72069605	     13.15392292	     -8.52458135	    -13.36937531	     -1.88110712	      0.34807241
      2.89000000	      2.43810890	     -0.17022142	     37.70540042	     -0.44569789	      1.00289623	      0.36057418	     10.73036073	     -3.68166329	     -5.01389077	    -62.05001662	      2.38127239	      9.36366838	     10.94786130	      5.57992241	    -13.57960486	    -22.24503849	     13.27449384	     -8.37224770	    -13.40287923	     -1.86869103	     -0.04106987
      2.90000000	      2.36774736	     -0.07716710	     38.45687153	     -0.44234856	      1.00340617	      0.35547397	     11.71227423	     -3.79097288	     -4.43794333	    -61.90203841	      2.57131061	      8.93193295	     10.31699236	      5.92586306	    -12.99053463	    -21.75128645	     13.33624959	     -8.22203942	    -13.43241105	     -1.85135955	     -0.40391608
      2.91000000	      2.28989698	      0.01714820	     39.19642488	     -0.43901177	      1.00389460	      0.35043847	     12.65610714	     -3.86968047	     -3.80090258	    -61.55975427	      2.83839085	      8.64441384	      9.67561418	      6.26126027	    -12.41590617	    -21.23618363	     13.42375032	     -8.09637171	    -13.45562225	     -1.85102492	     -0.74101005
      2.92000000	      2.20865135	      0.09343744	     39.92040193	     -0.43573954	      1.00434555	      0.34548318	     13.57945902	     -3.90464007	     -3.12106188	    -61.04112810	      3.18964338	      8.32190825	      9.04257720	      6.57048095	    -11.83652980	    -20.71032743	     13.48385526	     -7.96074921	    -13.47620520	     -1.84083548	     -1.03744332
      2.93000000	      2.11732628	      0.16261847	     40.63638633	     -0.43246746	      1.00475780	      0.34058700	     14.46920975	     -3.91219496	     -2.41104771	    -60.35017938	      3.62504954	      7.97115090	      8.41352892	      6.86367516	    -11.26321277	    -20.17465705	     13.52760693	     -7.82351826	    -13.48261647	     -1.84388251	     -1.31601362
      2.94000000	      2.02005594	      0.21870887	     41.33798815	     -0.42922436	      1.00511319	      0.33574906	     15.33673996	     -3.89192256	     -1.68024193	    -59.51305759	      4.12925129	      7.59667628	      7.79204574	      7.13706637	    -10.68541887	    -19.63047986	     13.56596981	     -7.69461335	    -13.48165373	     -1.84577839	     -1.56738103
      2.95000000	      1.91490498	      0.26453975	     42.03378256	     -0.42601533	      1.00540123	      0.33096560	     16.18335450	     -3.85042115	     -0.94157123	    -58.54710956	      4.68430290	      7.19120764	      7.18566371	      7.39501890	    -10.09629790	    -19.09260990	     13.60117407	     -7.57979312	    -13.47467903	     -1.85137185	     -1.80961443
